<?xml version="1.0" encoding="UTF-8" standalone="no"?>
<!-- Created with Inkscape (http://www.inkscape.org/) -->

<svg
   xmlns:dc="http://purl.org/dc/elements/1.1/"
   xmlns:cc="http://creativecommons.org/ns#"
   xmlns:rdf="http://www.w3.org/1999/02/22-rdf-syntax-ns#"
   xmlns:svg="http://www.w3.org/2000/svg"
   xmlns="http://www.w3.org/2000/svg"
   xmlns:sodipodi="http://sodipodi.sourceforge.net/DTD/sodipodi-0.dtd"
   xmlns:inkscape="http://www.inkscape.org/namespaces/inkscape"
   version="1.1"
   id="svg2"
   width="117"
   height="116.5"
   viewBox="0 0 117 116.5"
   sodipodi:docname="gams-logo.svg"
   inkscape:version="0.92.2 2405546, 2018-03-11"
   inkscape:export-filename="/home/rangerjo/temp/gams-logo.png"
   inkscape:export-xdpi="842.10529"
   inkscape:export-ydpi="842.10529">
  <metadata
     id="metadata8">
    <rdf:RDF>
      <cc:Work
         rdf:about="">
        <dc:format>image/svg+xml</dc:format>
        <dc:type
           rdf:resource="http://purl.org/dc/dcmitype/StillImage" />
        <dc:title></dc:title>
      </cc:Work>
    </rdf:RDF>
  </metadata>
  <defs
     id="defs6">
    <filter
       inkscape:label="Sharpen"
       inkscape:menu="Image Effects"
       inkscape:menu-tooltip="Sharpen edges and boundaries within the object, force=0.15"
       style="color-interpolation-filters:sRGB"
       id="filter819">
      <feConvolveMatrix
         order="3 3"
         kernelMatrix="0 -0.15 0 -0.15 1.6 -0.15 0 -0.15 0"
         divisor="1"
         in="SourceGraphic"
         targetX="1"
         targetY="1"
         id="feConvolveMatrix817" />
    </filter>
  </defs>
  <sodipodi:namedview
     pagecolor="#ffffff"
     bordercolor="#666666"
     borderopacity="1"
     objecttolerance="10"
     gridtolerance="10"
     guidetolerance="10"
     inkscape:pageopacity="0"
     inkscape:pageshadow="2"
     inkscape:window-width="1920"
     inkscape:window-height="1021"
     id="namedview4"
     showgrid="false"
     inkscape:zoom="4"
     inkscape:cx="102.77581"
     inkscape:cy="28.010263"
     inkscape:window-x="0"
     inkscape:window-y="0"
     inkscape:window-maximized="1"
     inkscape:current-layer="svg2"
     fit-margin-top="0"
     fit-margin-left="0"
     fit-margin-right="0"
     fit-margin-bottom="0" />
  <rect
     style="opacity:1;fill:#fff8f8;fill-opacity:1;stroke:none;stroke-width:1;stroke-miterlimit:4;stroke-dasharray:none;stroke-dashoffset:0;stroke-opacity:1"
     id="rect871"
     width="117"
     height="116.5"
     x="0"
     y="0"
     ry="0" />
  <path
     style="opacity:1;fill:none;fill-opacity:1;stroke:#07232f;stroke-width:1;stroke-miterlimit:4;stroke-dasharray:none;stroke-dashoffset:0;stroke-opacity:1"
     d="M 29.782769,50.974668 C 9.7578078,37.651939 3.6308977,26.27068 8.1030208,14.568302 10.380335,8.6091673 22.770873,2.0387537 28.397899,19.427614 l -1.418351,0.687163"
     id="path821"
     inkscape:connector-curvature="0"
     sodipodi:nodetypes="csc"
     inkscape:export-xdpi="895.81226"
     inkscape:export-ydpi="895.81226" />
  <path
     style="opacity:1;fill:none;fill-opacity:1;stroke:#07232f;stroke-width:1;stroke-miterlimit:4;stroke-dasharray:none;stroke-dashoffset:0;stroke-opacity:1"
     d="m 27.744662,20.125707 c -1.355344,-1.13674 -2.040956,-4.652959 -6.339513,-7.039044 -2.666967,-0.131162 -4.153473,0.590231 -5.771142,1.814412 -2.207899,1.66139 -0.174883,9.902755 -0.174883,9.902755 l 2.535805,5.071609 c 0.741966,-0.680136 12.066933,2.973013 12.066933,2.973013 l -0.08744,-1.224182 c 0,0 -2.688828,-1.442786 -4.459519,-3.672545 -1.261083,-2.184736 -1.224182,-4.022311 -1.224182,-4.022311 3.366499,-0.415347 8.599696,-0.188556 10.75531,0.349767 2.067663,0.516359 16.264127,9.531128 16.264127,9.531128 l 0.786974,-0.699532 0.874416,1.311623 0.786974,-0.961857 0.786973,1.049298 2.098597,-1.573948 0.437208,1.399065 2.973013,-1.661389 -0.262325,2.535805 3.060454,-2.186039 -0.786974,2.535805 1.486506,-1.049299 -0.874415,2.186039 c 0,0 4.109753,-2.098597 4.022311,-1.66139 -0.08744,0.437208 -2.360922,2.011156 -2.360922,2.011156 l 2.535805,-0.437208 -0.437208,1.486507 5.596259,2.186038 -2.272307,0.785801 c 0,0 13.502124,5.821976 16.323255,7.419661 4.389966,3.029695 17.065218,15.581288 17.065218,15.581288 L 117,78.659733 V 116.5 H 65.062378 L 60.233969,98.480139"
     id="path823"
     inkscape:connector-curvature="0"
     sodipodi:nodetypes="cccccccccsccccccccccccccccccccccccc"
     inkscape:export-xdpi="895.81226"
     inkscape:export-ydpi="895.81226" />
  <path
     style="opacity:1;fill:none;fill-opacity:1;stroke:#07232f;stroke-width:1;stroke-miterlimit:4;stroke-dasharray:none;stroke-dashoffset:0;stroke-opacity:1"
     d="m 29.935792,50.482809 -10.754937,26.419785 -6.645557,13.465998 0.125697,2.202434 2.798129,5.246493 4.896727,2.098601 2.798129,-0.34977 2.973013,-2.098597"
     id="path825"
     inkscape:connector-curvature="0"
     sodipodi:nodetypes="cccccccc"
     inkscape:export-xdpi="895.81226"
     inkscape:export-ydpi="895.81226" />
  <path
     style="opacity:1;fill:#e6e6e6;fill-opacity:1;stroke:#07232f;stroke-width:1;stroke-miterlimit:4;stroke-dasharray:none;stroke-dashoffset:0;stroke-opacity:1"
     d="m 13.185644,90.756614 2.973013,-1.858133 3.847428,-4.721843 8.744154,-9.61857 2.623246,-9.268803 4.546961,-0.349766 3.672544,1.049298 2.098597,-2.623246 2.79813,-0.52465 2.623246,-5.771141 -5.246492,-3.497662 -0.237856,3.323296 -8.331416,-1.224699 1.573948,-6.120908 -3.672545,2.623246 -1.923714,5.07161 -0.699532,-3.497662 z"
     id="path840"
     inkscape:connector-curvature="0"
     sodipodi:nodetypes="cccccccccccccccccc"
     inkscape:export-xdpi="895.81226"
     inkscape:export-ydpi="895.81226" />
  <path
     style="opacity:1;fill:#000000;fill-opacity:1;stroke:#07232f;stroke-width:1;stroke-miterlimit:4;stroke-dasharray:none;stroke-dashoffset:0;stroke-opacity:1"
     d="m 34.085293,59.925089 0.309153,-1.483932 2.287728,-1.051119 4.946441,-0.494644 -0.370983,2.782373 -2.287729,2.225898 -3.277017,0.185492 z"
     id="path827"
     inkscape:connector-curvature="0"
     inkscape:export-xdpi="895.81226"
     inkscape:export-ydpi="895.81226" />
  <path
     style="opacity:1;fill:none;fill-opacity:1;stroke:#07232f;stroke-width:1;stroke-miterlimit:4;stroke-dasharray:none;stroke-dashoffset:0;stroke-opacity:1"
     d="m 26.126993,97.467753 26.232463,-6.820441 7.874513,7.832827"
     id="path829"
     inkscape:connector-curvature="0"
     inkscape:export-xdpi="895.81226"
     inkscape:export-ydpi="895.81226" />
  <path
     style="opacity:1;fill:#e6e6e6;fill-opacity:1;stroke:#07232f;stroke-width:1;stroke-miterlimit:4;stroke-dasharray:none;stroke-dashoffset:0;stroke-opacity:1"
     d="m 26.126993,97.467753 c 0,0 3.847428,-7.170207 3.847428,-7.170207 l 0.524649,-6.470674 5.596259,-9.093921 9.443686,-9.09392 -1.049298,-2.79813 4.372077,-8.394388 4.197194,-6.470674 -2.623246,-3.847428 -1.224182,0.699532 -5.771142,-1.049298 -10.143219,-7.519973 -3.322777,-4.634402 -1.0493,-5.159051 5.596259,-0.874415 12.241816,8.744154 8.044622,11.717167 3.847428,0.874415 5.421376,18.537608 1.923714,23.084567 -5.766368,9.931424 -7.874513,-7.832827 z"
     id="path842"
     inkscape:connector-curvature="0"
     inkscape:export-xdpi="895.81226"
     inkscape:export-ydpi="895.81226" />
  <path
     style="opacity:1;fill:#000000;fill-opacity:1;stroke:#07232f;stroke-width:1;stroke-miterlimit:4;stroke-dasharray:none;stroke-dashoffset:0;stroke-opacity:1"
     d="M 14.732344,95.910445 18.009361,92.94258 17.8857,90.036546 16.158657,88.898481 12.691937,91.087665 Z"
     id="path844"
     inkscape:connector-curvature="0"
     inkscape:export-xdpi="895.81226"
     inkscape:export-ydpi="895.81226" />
  <text
     xml:space="preserve"
     style="font-style:normal;font-variant:normal;font-weight:normal;font-stretch:normal;font-size:20px;line-height:25px;font-family:'Breuer Condensed';-inkscape-font-specification:'Breuer Condensed, Normal';text-align:start;letter-spacing:0px;word-spacing:0px;writing-mode:lr-tb;text-anchor:start;fill:#000000;fill-opacity:1;stroke:none;stroke-width:1px;stroke-linecap:butt;stroke-linejoin:miter;stroke-opacity:1"
     x="41.814102"
     y="20.291733"
     id="text862"
     inkscape:export-xdpi="895.81226"
     inkscape:export-ydpi="895.81226"><tspan
       sodipodi:role="line"
       id="tspan860"
       x="41.814102"
       y="37.791733" /></text>
  <path
     style="opacity:1;fill:#333333;fill-opacity:1;stroke:#07232f;stroke-width:1;stroke-miterlimit:4;stroke-dasharray:none;stroke-dashoffset:0;stroke-opacity:1"
     d="M 17.994929,29.875439 C 16.29459,29.473541 34.259056,44.390736 34.259056,44.390736"
     id="path868"
     inkscape:connector-curvature="0"
     sodipodi:nodetypes="cc"
     inkscape:export-xdpi="895.81226"
     inkscape:export-ydpi="895.81226" />
  <text
     xml:space="preserve"
     style="font-style:normal;font-variant:normal;font-weight:normal;font-stretch:normal;font-size:20px;line-height:25px;font-family:'Breuer Condensed';-inkscape-font-specification:'Breuer Condensed, Normal';text-align:start;letter-spacing:0px;word-spacing:0px;writing-mode:lr-tb;text-anchor:start;fill:#07232f;fill-opacity:1;stroke:none;stroke-width:1px;stroke-linecap:butt;stroke-linejoin:miter;stroke-opacity:1"
     x="44.905632"
     y="20.662716"
     id="text872"
     inkscape:export-xdpi="895.81226"
     inkscape:export-ydpi="895.81226"><tspan
       sodipodi:role="line"
       id="tspan870"
       x="44.905632"
       y="20.662716">Inchreis</tspan><tspan
       sodipodi:role="line"
       x="44.905632"
       y="45.662716"
       id="tspan874" /></text>
  <text
     xml:space="preserve"
     style="font-style:normal;font-variant:normal;font-weight:normal;font-stretch:normal;font-size:20px;line-height:25px;font-family:'Breuer Condensed';-inkscape-font-specification:'Breuer Condensed, Normal';text-align:start;letter-spacing:0px;word-spacing:0px;writing-mode:lr-tb;text-anchor:start;fill:#07232f;fill-opacity:1;stroke:none;stroke-width:1px;stroke-linecap:butt;stroke-linejoin:miter;stroke-opacity:1"
     x="72.234718"
     y="35.378376"
     id="text878"
     inkscape:export-xdpi="895.81226"
     inkscape:export-ydpi="895.81226"><tspan
       sodipodi:role="line"
       id="tspan876"
       x="72.234718"
       y="35.378376"
       style="font-style:normal;font-variant:normal;font-weight:normal;font-stretch:normal;font-size:13.33333302px;font-family:'Breuer Condensed';-inkscape-font-specification:'Breuer Condensed, Normal';font-variant-ligatures:normal;font-variant-caps:normal;font-variant-numeric:normal;font-feature-settings:normal;text-align:start;writing-mode:lr-tb;text-anchor:start">done right</tspan></text>
  <path
     style="opacity:1;fill:none;fill-opacity:1;stroke:#07232f;stroke-width:1;stroke-miterlimit:4;stroke-dasharray:none;stroke-dashoffset:0;stroke-opacity:1"
     d="m 103.76828,100.30041 -6.59573,11.42414 h 13.52074 z"
     id="path882"
     inkscape:connector-curvature="0"
     inkscape:export-xdpi="895.81226"
     inkscape:export-ydpi="895.81226" />
  <circle
     style="opacity:1;fill:none;fill-opacity:1;stroke:#07232f;stroke-width:1;stroke-miterlimit:4;stroke-dasharray:none;stroke-dashoffset:0;stroke-opacity:1"
     id="path884"
     cx="103.88754"
     cy="107.99794"
     r="3.1533558"
     inkscape:export-xdpi="895.81226"
     inkscape:export-ydpi="895.81226" />
  <path
     style="opacity:1;fill:none;fill-opacity:1;stroke:none;stroke-width:0.125;stroke-miterlimit:4;stroke-dasharray:none;stroke-dashoffset:0;stroke-opacity:1"
     d="M 18.144365,98.375616 C 15.911872,97.41018 15.891804,97.398001 15.56516,96.810241 l -0.329206,-0.59237 1.685014,-1.51454 1.685014,-1.51454 -0.07381,-1 c -0.04059,-0.55 -0.07415,-1.322862 -0.07456,-1.717474 l -7.5e-4,-0.717472 -0.6875,-0.456475 c -0.378125,-0.25106 -0.6875,-0.500826 -0.6875,-0.555035 0,-0.260126 3.987637,-4.908533 7.859838,-9.162249 l 4.309141,-4.733705 1.276254,-4.516295 1.276255,-4.516295 1.983006,-0.157199 1.983006,-0.157198 1.867685,0.514056 c 1.027227,0.282731 1.934184,0.539575 2.015462,0.570764 0.08128,0.03119 0.64063,-0.562929 1.243005,-1.320262 1.195345,-1.502842 1.018458,-1.395653 2.811348,-1.703601 l 0.4375,-0.07515 0.352959,0.949165 c 0.194128,0.522041 0.334753,1.000826 0.3125,1.063967 -0.02225,0.06314 -2.087667,2.082038 -4.589811,4.486438 l -4.549354,4.371638 -2.85661,4.641285 -2.85661,4.641286 -0.265305,3.24338 -0.265305,3.24338 -1.859786,3.474665 -1.859787,3.474666 -1.37661,0.972735 c -1.461949,1.033038 -1.346988,0.992011 -3.498781,1.248634 -0.3411,0.0407 -0.933269,-0.162216 -2.6875,-0.920829 z"
     id="path838"
     inkscape:connector-curvature="0"
     inkscape:export-xdpi="895.81226"
     inkscape:export-ydpi="895.81226" />
  <path
     style="opacity:1;fill:#808080;fill-opacity:1;stroke:none;stroke-width:0.125;stroke-miterlimit:4;stroke-dasharray:none;stroke-dashoffset:0;stroke-opacity:1"
     d="M 18.144365,98.375616 C 15.911872,97.41018 15.891804,97.398001 15.56516,96.810241 l -0.329206,-0.59237 1.685014,-1.51454 1.685014,-1.51454 -0.07381,-1 c -0.04059,-0.55 -0.07415,-1.322862 -0.07456,-1.717474 l -7.5e-4,-0.717472 -0.6875,-0.456475 c -0.378125,-0.25106 -0.6875,-0.500826 -0.6875,-0.555035 0,-0.260126 3.987637,-4.908533 7.859838,-9.162249 l 4.309141,-4.733705 1.276254,-4.516295 1.276255,-4.516295 1.983006,-0.157199 1.983006,-0.157198 1.867685,0.514056 c 1.027227,0.282731 1.934184,0.539575 2.015462,0.570764 0.08128,0.03119 0.64063,-0.562929 1.243005,-1.320262 1.195345,-1.502842 1.018458,-1.395653 2.811348,-1.703601 l 0.4375,-0.07515 0.352959,0.949165 c 0.194128,0.522041 0.334753,1.000826 0.3125,1.063967 -0.02225,0.06314 -2.087667,2.082038 -4.589811,4.486438 l -4.549354,4.371638 -2.85661,4.641285 -2.85661,4.641286 -0.265305,3.24338 -0.265305,3.24338 -1.859786,3.474665 -1.859787,3.474666 -1.37661,0.972735 c -1.461949,1.033038 -1.346988,0.992011 -3.498781,1.248634 -0.3411,0.0407 -0.933269,-0.162216 -2.6875,-0.920829 z"
     id="path845"
     inkscape:connector-curvature="0"
     inkscape:export-xdpi="895.81226"
     inkscape:export-ydpi="895.81226" />
  <path
     style="opacity:1;fill:#808080;fill-opacity:1;stroke:none;stroke-width:0.125;stroke-miterlimit:4;stroke-dasharray:none;stroke-dashoffset:0;stroke-opacity:1"
     d="m 44.269365,54.500793 c -1.5125,-1.022253 -2.784118,-1.86221 -2.825818,-1.866572 -0.0417,-0.0044 -0.128703,0.777509 -0.193335,1.737488 -0.06463,0.95998 -0.144804,1.772706 -0.178155,1.806059 -0.03335,0.03335 -1.640537,-0.170568 -3.57152,-0.453153 l -3.51088,-0.513792 0.866651,-3.367553 c 0.476659,-1.852152 0.837346,-3.396856 0.801529,-3.432675 -0.03582,-0.03582 -1.161133,0.715249 -2.5007,1.669036 l -2.435578,1.73416 -0.5875,1.59375 c -0.323125,0.876563 -0.630527,1.59375 -0.683117,1.59375 -0.05259,0 -0.133313,-0.274081 -0.179385,-0.60907 -0.07517,-0.546526 -0.01875,-0.766182 0.549445,-2.139081 0.602458,-1.4557 0.664146,-1.751849 0.36491,-1.751849 -0.07216,0 -0.757903,-0.431828 -1.523873,-0.95962 C 15.972571,40.798008 9.3629708,33.165383 7.6273758,25.251291 c -0.330242,-1.505863 -0.330543,-5.594537 -5.24e-4,-7.125 0.336934,-1.562529 1.114134,-3.773989 1.583276,-4.505084 1.2783452,-1.992128 3.1630892,-3.509041 5.3211312,-4.2826474 5.103985,-1.8296546 9.680179,1.1060784 12.506038,8.0229104 0.587435,1.437861 0.699243,1.960162 0.27076,1.264821 -1.831473,-2.972099 -3.02452,-4.342445 -4.77348,-5.482863 -0.890407,-0.580595 -1.052135,-0.642046 -1.6875,-0.641192 -2.837468,0.0038 -5.71799,1.453558 -6.401562,3.221858 -0.529729,1.37033 -0.470933,4.270995 0.15511,7.652197 0.247387,1.336114 0.353089,1.611537 1.4987,3.90506 0.677897,1.357158 1.23254,2.59103 1.23254,2.741938 0,0.513787 3.404738,3.663157 10.1875,9.4234 5.392134,4.579254 6.317924,5.329269 6.494575,5.261481 0.0981,-0.03764 0.274868,-0.215734 0.392823,-0.395757 0.258889,-0.395114 0.540159,-0.101419 -2.637398,-2.753905 -5.078902,-4.239648 -11.148403,-9.524434 -12.180771,-10.605942 -0.429322,-0.449757 -0.42972,-0.451275 -0.118354,-0.451275 0.671204,0 6.802157,1.692874 10.042734,2.772993 l 1.243609,0.414507 1.131391,1.537198 1.131391,1.537197 4.985987,3.692085 c 2.742292,2.030648 5.104792,3.742054 5.25,3.803125 0.145207,0.06107 1.556672,0.342488 3.136587,0.625372 l 2.872575,0.514332 0.51992,-0.252597 0.51992,-0.252597 0.982506,1.460443 c 0.540378,0.803244 0.979438,1.544817 0.975688,1.647942 -0.0037,0.103125 -0.836368,1.464317 -1.85026,3.02487 -1.013893,1.560554 -2.141768,3.385973 -2.506389,4.056485 -0.36462,0.670514 -0.713254,1.232093 -0.77474,1.247953 -0.06149,0.01586 -1.349294,-0.807553 -2.861794,-1.829806 z"
     id="path847"
     inkscape:connector-curvature="0"
     inkscape:export-xdpi="895.81226"
     inkscape:export-ydpi="895.81226" />
  <path
     style="opacity:1;fill:#666666;fill-opacity:1;stroke:none;stroke-width:0.125;stroke-miterlimit:4;stroke-dasharray:none;stroke-dashoffset:0;stroke-opacity:1"
     d="M 63.170975,107.28444 60.838043,98.567585 63.702679,93.625466 66.567315,88.683347 65.580268,76.93607 64.593222,65.188791 61.849749,55.836414 c -1.508909,-5.143808 -2.763026,-9.3664 -2.786927,-9.38354 -0.0239,-0.01714 -0.913203,-0.225479 -1.976225,-0.462976 l -1.93277,-0.431814 -3.994609,-5.816255 -3.994609,-5.816255 -6.115241,-4.368391 c -3.363384,-2.402616 -6.185211,-4.408175 -6.270728,-4.4568 -0.154946,-0.0881 -6.283102,0.820569 -6.413516,0.950983 -0.03772,0.03772 0.11606,0.999565 0.341741,2.137425 0.225682,1.13786 0.38094,2.098228 0.345017,2.13415 -0.09413,0.09413 -1.805637,-1.307488 -2.490153,-2.039291 -0.802562,-0.858004 -1.337857,-1.986401 -1.595849,-3.364033 l -0.09723,-0.519175 1.823983,-0.09118 c 2.923722,-0.146156 6.972936,0.13971 8.315608,0.587067 1.339525,0.446308 6.542455,3.458008 13.437133,7.778043 l 2.926011,1.833368 0.292245,-0.27455 c 0.160735,-0.151003 0.311476,-0.250891 0.334981,-0.221974 0.02351,0.02892 0.223305,0.319764 0.443999,0.646326 0.220694,0.326563 0.448133,0.59375 0.50542,0.59375 0.05729,0 0.255851,-0.198878 0.441253,-0.441952 l 0.337093,-0.441953 0.261638,0.348203 c 0.143901,0.191511 0.30573,0.39911 0.35962,0.46133 0.05476,0.06323 0.514654,-0.200485 1.042631,-0.597873 l 0.944649,-0.711 0.122476,0.322135 c 0.06736,0.177175 0.157148,0.46028 0.199525,0.629123 0.04238,0.168843 0.103324,0.306987 0.135438,0.306987 0.03211,0 0.43383,-0.217733 0.8927,-0.483852 0.45887,-0.266119 1.02486,-0.580941 1.257755,-0.699603 l 0.423446,-0.21575 -0.08632,1.043353 c -0.04748,0.573844 -0.115254,1.14179 -0.15062,1.262102 -0.105111,0.357588 0.104374,0.261162 1.316639,-0.606048 0.634137,-0.45364 1.182195,-0.795581 1.217905,-0.75987 0.03571,0.03571 -0.07789,0.531482 -0.252453,1.101714 -0.174558,0.570232 -0.302857,1.051308 -0.285107,1.069058 0.01775,0.01775 0.244389,-0.111861 0.50364,-0.288027 0.25925,-0.176165 0.497177,-0.294489 0.528725,-0.26294 0.03155,0.03155 -0.05926,0.353237 -0.201803,0.714863 -0.14254,0.361627 -0.234797,0.681869 -0.205016,0.71165 0.02978,0.02978 0.508719,-0.174407 1.064306,-0.453751 0.555589,-0.279345 1.063298,-0.507899 1.128242,-0.507899 0.06494,0 0.184327,0.200732 0.265296,0.446069 0.08804,0.266755 0.209677,0.4221 0.302597,0.386443 0.08546,-0.03279 0.471432,-0.09911 0.857713,-0.147377 l 0.702331,-0.08775 -0.120235,0.419233 c -0.06613,0.230577 -0.120234,0.481204 -0.120234,0.556947 0,0.07575 0.984375,0.519968 2.1875,0.987164 1.203125,0.467196 2.1875,0.885764 2.1875,0.93015 0,0.04439 -0.398978,0.219054 -0.886621,0.388151 -0.487641,0.169097 -0.9045,0.336378 -0.926352,0.371737 -0.02185,0.03536 1.62869,0.791272 3.667871,1.67981 5.035501,2.194131 10.10713,4.48529 12.145102,5.48667 1.857644,0.912773 2.969525,1.741572 6.25726,4.664166 5.65259,5.024797 10.9787,10.265334 18.82579,18.523321 l 7.16696,7.542232 V 97.449775 116.00129 H 90.980386 65.503908 Z m 48.410895,4.89373 c 0,-0.20464 -7.80785,-12.917838 -7.88306,-12.83565 -0.13279,0.14512 -7.21419,12.43775 -7.31033,12.69002 -0.0788,0.20686 0.33195,0.21875 7.55501,0.21875 4.20111,0 7.63838,-0.0329 7.63838,-0.0731 z"
     id="path849"
     inkscape:connector-curvature="0"
     inkscape:export-xdpi="895.81226"
     inkscape:export-ydpi="895.81226" />
  <path
     style="opacity:1;fill:#808080;fill-opacity:1;stroke:none;stroke-width:0.125;stroke-miterlimit:4;stroke-dasharray:none;stroke-dashoffset:0;stroke-opacity:1"
     d="m 102.02051,104.4409 c 0.13033,-0.22344 0.5703,-0.98234 0.9777,-1.68644 0.56716,-0.98018 0.7736,-1.24381 0.88097,-1.125 0.15714,0.17389 1.92906,3.06349 1.92906,3.14585 0,0.029 -0.18281,-0.0403 -0.40625,-0.15387 -0.2351,-0.11953 -0.80799,-0.2261 -1.35985,-0.25297 -0.7673,-0.0373 -1.06957,0.005 -1.54714,0.21613 -0.32645,0.1444 -0.62007,0.26255 -0.65249,0.26255 -0.0324,0 0.0477,-0.18282 0.178,-0.40625 z"
     id="path851"
     inkscape:connector-curvature="0"
     inkscape:export-xdpi="895.81226"
     inkscape:export-ydpi="895.81226" />
  <path
     style="opacity:1;fill:#808080;fill-opacity:1;stroke:none;stroke-width:0.125;stroke-miterlimit:4;stroke-dasharray:none;stroke-dashoffset:0;stroke-opacity:1"
     d="m 102.86967,110.36402 c -1.4654,-0.66571 -2.00691,-2.52257 -1.10845,-3.80092 1.15245,-1.63973 3.52712,-1.4701 4.43888,0.31709 0.20349,0.39887 0.24891,0.67679 0.21013,1.28584 -0.0656,1.02991 -0.47391,1.65764 -1.36813,2.10325 -0.7761,0.38675 -1.46365,0.41673 -2.17243,0.0947 z"
     id="path853"
     inkscape:connector-curvature="0"
     inkscape:export-xdpi="895.81226"
     inkscape:export-ydpi="895.81226" />
  <path
     style="opacity:1;fill:#808080;fill-opacity:1;stroke:none;stroke-width:0.125;stroke-miterlimit:4;stroke-dasharray:none;stroke-dashoffset:0;stroke-opacity:1"
     d="m 98.18324,111.15357 c 0,-0.0377 0.43594,-0.82099 0.96875,-1.74063 l 0.96875,-1.67206 0.0885,0.67188 c 0.11806,0.89655 0.59704,1.80621 1.24153,2.35787 l 0.52749,0.45152 h -1.8975 c -1.04362,0 -1.8975,-0.0309 -1.8975,-0.0686 z"
     id="path855"
     inkscape:connector-curvature="0"
     inkscape:export-xdpi="895.81226"
     inkscape:export-ydpi="895.81226" />
  <path
     style="opacity:1;fill:#808080;fill-opacity:1;stroke:none;stroke-width:0.125;stroke-miterlimit:4;stroke-dasharray:none;stroke-dashoffset:0;stroke-opacity:1"
     d="m 106.36732,110.71196 c 0.6723,-0.6197 1.07649,-1.41593 1.17767,-2.31991 l 0.0757,-0.67681 0.76814,1.2847 c 0.42248,0.70659 0.8921,1.49564 1.0436,1.75346 l 0.27546,0.46875 h -1.94706 -1.94705 z"
     id="path857"
     inkscape:connector-curvature="0"
     inkscape:export-xdpi="895.81226"
     inkscape:export-ydpi="895.81226" />
  <path
     style="opacity:1;fill:#666666;fill-opacity:1;stroke:none;stroke-width:0.35355338;stroke-miterlimit:4;stroke-dasharray:none;stroke-dashoffset:0;stroke-opacity:1"
     d="m 39.61321,55.972502 c -0.310118,-0.173548 -0.936905,-0.320001 -1.39286,-0.325442 -0.680915,-0.0081 -1.813083,-0.110447 -3.527811,-0.318817 -0.396628,-0.0482 -0.60531,-1.433468 -0.249106,-1.653611 0.189456,-0.117094 0.261017,-0.430353 0.159026,-0.69614 -0.101991,-0.265784 -0.02244,-0.583982 0.176777,-0.707107 0.199218,-0.123121 0.284252,-0.427029 0.188964,-0.675347 -0.09529,-0.248315 -0.04335,-0.590194 0.115426,-0.75973 0.158772,-0.169539 0.402001,-0.845226 0.540508,-1.50153 0.29068,-1.377363 0.375509,-1.403445 -2.879625,0.885375 -1.999445,1.405895 -3.280888,3.222491 -2.689993,3.813385 0.113758,0.113756 0.02122,0.206832 -0.205646,0.206832 -0.551492,0 -0.519867,-0.472803 0.136741,-2.044288 0.302072,-0.722957 0.509034,-1.394019 0.459918,-1.491246 -0.17347,-0.343385 -4.876736,-3.535534 -5.209204,-3.535534 -0.185461,0 -0.390235,-0.136669 -0.455054,-0.303709 -0.138063,-0.355795 -4.537268,-4.042283 -4.537268,-3.802184 0,0.08939 -1.695089,-1.615125 -3.766865,-3.78781 -2.071776,-2.172684 -3.978491,-4.125166 -4.237145,-4.338847 -0.258654,-0.213681 -0.391624,-0.467168 -0.295489,-0.563304 0.09614,-0.09613 -0.220448,-0.601263 -0.70352,-1.122506 -0.483072,-0.521244 -0.858586,-1.034859 -0.834476,-1.141368 0.07215,-0.318718 -1.9846102,-4.552757 -2.2739122,-4.68107 -0.147052,-0.06522 -0.191436,-0.241445 -0.09863,-0.391606 0.09281,-0.150161 0.0062,-0.812743 -0.192396,-1.472405 -0.198623,-0.659661 -0.361132,-2.392627 -0.361132,-3.851035 0,-1.458408 0.162509,-3.191373 0.361132,-3.851035 0.198623,-0.659662 0.276803,-1.335832 0.173733,-1.502602 -0.103069,-0.166769 -0.0019,-0.303217 0.224847,-0.303217 0.226735,0 0.320667,-0.238649 0.208739,-0.53033 -0.111929,-0.291682 -0.0687,-0.53033 0.09606,-0.53033 0.16476,0 0.499528,-0.482757 0.743929,-1.072793 0.523994,-1.265033 3.2942752,-3.804192 4.4733182,-4.1001134 0.453727,-0.113878 0.824958,-0.358292 0.824958,-0.543142 0,-0.1848502 0.159099,-0.2377626 0.353553,-0.1175832 0.194454,0.1201792 0.537064,0.1050922 0.761355,-0.033527 0.539234,-0.3332651 2.903923,-0.3233024 3.45056,0.014538 0.237228,0.1466142 0.519229,0.1786672 0.626668,0.071229 0.107439,-0.1074393 0.427879,0.037191 0.712088,0.3214002 0.284209,0.284209 0.663016,0.426342 0.841794,0.315852 0.178777,-0.110491 0.325049,-0.03814 0.325049,0.1607814 0,0.19892 0.556001,0.739485 1.235558,1.201256 0.679557,0.461771 1.161121,0.914019 1.070144,1.004996 -0.09098,0.09098 0.267841,0.653015 0.797375,1.248972 0.529533,0.595957 0.990774,1.223363 1.02498,1.394235 0.03421,0.170872 0.166747,0.628874 0.294534,1.017783 0.141214,0.429772 -0.203862,0.193048 -0.879823,-0.603562 -1.654833,-1.950199 -3.227579,-2.799489 -5.023933,-2.712946 -0.838221,0.04038 -1.722912,0.225977 -1.96598,0.412431 -0.243068,0.186455 -0.441942,0.235892 -0.441942,0.109862 0,-0.445556 -1.956482,0.796028 -2.817911,1.788246 -0.734308,0.845797 -0.874231,1.371876 -0.878794,3.304066 -0.003,1.263954 0.10746,3.151469 0.245432,4.19448 0.2439,1.84377 2.561218,7.405209 3.54727,8.513257 1.434827,1.612346 7.209178,6.7377 7.590861,6.7377 0.244678,0 0.44487,0.139065 0.44487,0.309034 0,0.346911 6.161456,5.701373 6.560652,5.701373 0.140627,0 0.449092,0.264501 0.685478,0.587776 0.254586,0.348168 0.666823,0.496816 1.011248,0.364648 0.758451,-0.291042 0.743241,-0.912532 -0.02959,-1.209097 -0.336076,-0.128964 -0.992269,-0.687537 -1.458207,-1.241273 -0.465937,-0.553735 -0.902901,-0.951051 -0.971029,-0.882922 -0.06813,0.06813 -1.11399,-0.795199 -2.324136,-1.918505 -1.210146,-1.123306 -2.263287,-1.979354 -2.340311,-1.902329 -0.07702,0.07702 -0.618839,-0.40527 -1.204031,-1.071767 -0.585193,-0.666497 -1.211464,-1.211812 -1.391716,-1.211812 -0.180251,0 -0.816647,-0.556847 -1.414213,-1.237437 -0.597566,-0.68059 -1.290353,-1.237437 -1.539526,-1.237437 -0.249174,0 -0.713657,-0.397747 -1.032186,-0.883883 -0.691401,-1.055212 -0.509458,-1.07834 2.391329,-0.303972 1.194794,0.318952 2.411002,0.614645 2.702684,0.657096 0.291681,0.04245 1.007627,0.2743 1.59099,0.515219 0.583363,0.240918 1.418521,0.462297 1.855906,0.491952 0.437384,0.02966 0.795357,0.173243 0.795495,0.319083 1.37e-4,0.145841 0.327837,0.265165 0.728222,0.265165 0.400385,0 0.647141,0.130788 0.548347,0.29064 -0.339837,0.549867 3.149937,3.870845 7.079797,6.737356 2.165184,1.579325 4.100888,2.871499 4.301565,2.871499 0.200677,0 0.41878,0.161737 0.484672,0.359412 0.06589,0.197675 0.631528,0.424172 1.256971,0.503326 0.625439,0.07916 1.280114,0.232267 1.45483,0.340245 0.663443,0.41003 4.298389,0.584537 4.298389,0.206355 0,-0.228575 0.194394,-0.197403 0.49467,0.07932 0.27207,0.250736 0.435868,0.517471 0.364001,0.59275 -0.07187,0.07528 0.190668,0.58815 0.58342,1.139721 0.567092,0.796408 0.635162,1.150332 0.330668,1.719284 -0.210884,0.394043 -0.258501,0.721274 -0.105819,0.727189 0.152682,0.0059 -0.0042,0.17479 -0.34855,0.375283 -0.344386,0.200493 -0.544172,0.497181 -0.443975,0.65931 0.1002,0.162125 -0.01577,0.373695 -0.257726,0.470155 -0.241951,0.09646 -0.83766,0.945579 -1.323796,1.886929 -0.486136,0.94135 -1.082757,1.924606 -1.325825,2.185016 -0.243068,0.26041 -0.441942,0.621204 -0.441942,0.801771 0,0.637849 -0.767413,0.309154 -3.3553,-1.437135 -2.685009,-1.811826 -3.111232,-1.823589 -2.997005,-0.08272 0.12408,1.891033 -0.346707,2.459116 -1.502099,1.812523 z"
     id="path859"
     inkscape:connector-curvature="0"
     inkscape:export-xdpi="895.81226"
     inkscape:export-ydpi="895.81226" />
  <path
     style="opacity:1;fill:#666666;fill-opacity:1;stroke:none;stroke-width:0.35355338;stroke-miterlimit:4;stroke-dasharray:none;stroke-dashoffset:0;stroke-opacity:1"
     d="m 20.417898,99.132122 c -0.387324,-0.140548 -0.823549,-0.186513 -0.96939,-0.102141 -0.145841,0.08437 -0.265165,0.0021 -0.265165,-0.182689 0,-0.29387 -1.713636,-0.923601 -2.081792,-0.765025 -0.07549,0.03252 -0.234586,-0.08739 -0.353554,-0.266461 -0.118967,-0.179067 -0.50859,-0.485161 -0.865828,-0.680209 -0.595913,-0.32536 -0.531133,-0.491419 0.784855,-2.011925 0.788908,-0.911511 1.55849,-1.659564 1.710183,-1.662339 0.560075,-0.01024 0.146126,-3.274676 -0.531462,-4.191164 l -0.683515,-0.924503 0.85796,-0.64716 c 0.471878,-0.355939 0.796793,-0.708329 0.722032,-0.783089 -0.07476,-0.07476 1.016704,-1.369781 2.425477,-2.877824 1.408773,-1.508043 2.510198,-2.793103 2.447612,-2.855689 -0.06259,-0.06259 0.664706,-0.841989 1.616206,-1.732006 0.9515,-0.890017 1.73,-1.760401 1.73,-1.934187 0,-0.173786 0.56219,-0.809583 1.249312,-1.412884 0.687121,-0.6033 1.165798,-1.180422 1.063727,-1.282493 -0.102071,-0.102071 -0.04563,-0.359322 0.125412,-0.571667 0.463176,-0.575008 1.809136,-5.572128 1.594415,-5.919554 -0.102031,-0.165089 -0.03473,-0.300161 0.149562,-0.300161 0.184289,0 0.432357,-0.517072 0.551261,-1.149048 l 0.21619,-1.149049 2.209643,0.02344 c 1.215304,0.01289 2.910356,0.224504 3.766783,0.470255 1.401968,0.402293 1.648594,0.378539 2.474874,-0.238367 0.504753,-0.376853 0.866427,-0.806407 0.803719,-0.954563 -0.179067,-0.423073 1.815935,-1.499078 2.467812,-1.331015 0.322317,0.0831 0.673969,0.487362 0.781449,0.898366 0.15523,0.593597 -0.619683,1.586641 -3.768011,4.828672 -2.179886,2.244765 -4.252074,4.19937 -4.604862,4.343566 -0.352788,0.144196 -0.542272,0.422619 -0.421076,0.618718 0.121196,0.1961 0.08548,0.356545 -0.07936,0.356545 -0.336191,0 -2.668172,3.713675 -2.571806,4.095595 0.03397,0.134621 -0.08978,0.342102 -0.274996,0.46107 -0.620345,0.398461 -2.8684,4.182273 -2.884453,4.854963 -0.07576,3.174531 -0.383988,5.490651 -0.850853,6.393468 -0.305979,0.591699 -0.456605,1.175537 -0.334724,1.297418 0.12188,0.121881 0.0266,0.221602 -0.211743,0.221602 -0.23834,0 -0.343415,0.14551 -0.2335,0.323356 0.109915,0.177846 0.07363,0.37672 -0.08063,0.441942 -0.154262,0.06522 -0.737455,0.91408 -1.295985,1.886352 -1.127857,1.963338 -2.317032,3.598685 -2.317032,3.18637 0,-0.147261 -0.198874,-0.105779 -0.441942,0.09218 -0.918266,0.747864 -2.943024,1.379462 -3.626804,1.131335 z"
     id="path861"
     inkscape:connector-curvature="0"
     inkscape:export-xdpi="895.81226"
     inkscape:export-ydpi="895.81226" />
  <path
     style="opacity:1;fill:#666666;fill-opacity:1;stroke:none;stroke-width:0.0625;stroke-miterlimit:4;stroke-dasharray:none;stroke-dashoffset:0;stroke-opacity:1"
     d="m 101.89148,104.76399 c 0,-0.0705 1.48179,-2.61109 1.69288,-2.90248 0.10249,-0.14149 0.21467,-0.23976 0.24927,-0.21837 0.0775,0.0479 0.19793,0.23543 1.16116,1.80794 0.42056,0.68657 0.75652,1.25644 0.74658,1.26638 -0.01,0.01 -0.15103,-0.0408 -0.31353,-0.11263 -0.16251,-0.0719 -0.33561,-0.11529 -0.38466,-0.0965 -0.0491,0.0188 -0.0892,0.007 -0.0892,-0.0256 0,-0.0329 -0.0633,-0.0606 -0.14062,-0.0615 -0.0774,-9.3e-4 -0.51266,-0.0161 -0.96736,-0.0337 -0.86259,-0.0334 -0.9623,-0.0128 -1.87639,0.3881 -0.043,0.0189 -0.0781,0.0136 -0.0781,-0.0116 z"
     id="path863"
     inkscape:connector-curvature="0" />
  <path
     style="opacity:1;fill:#666666;fill-opacity:1;stroke:none;stroke-width:0.0625;stroke-miterlimit:4;stroke-dasharray:none;stroke-dashoffset:0;stroke-opacity:1"
     d="m 103.13786,110.43229 c -0.94623,-0.3472 -1.5658,-1.07727 -1.74282,-2.05361 -0.19475,-1.07415 0.39768,-2.17987 1.43008,-2.66908 0.3779,-0.17907 0.46166,-0.19434 1.06636,-0.19434 0.60448,0 0.68855,0.0153 1.06572,0.19404 0.79652,0.37745 1.36254,1.16234 1.4203,1.9695 0.0373,0.52182 -0.0741,1.17407 -0.26501,1.55076 -0.15504,0.30594 -0.54103,0.69792 -0.90851,0.92258 -0.60884,0.37222 -1.4897,0.49166 -2.06612,0.28015 z"
     id="path865"
     inkscape:connector-curvature="0" />
  <path
     style="opacity:1;fill:#666666;fill-opacity:1;stroke:none;stroke-width:0.0625;stroke-miterlimit:4;stroke-dasharray:none;stroke-dashoffset:0;stroke-opacity:1"
     d="m 98.32109,110.93714 c 0.17502,-0.34284 1.69634,-2.97556 1.75364,-3.03476 0.0268,-0.0277 0.0673,0.13072 0.09,0.35207 0.0949,0.926 0.51679,1.78259 1.21363,2.46394 l 0.46343,0.45312 h -1.82017 -1.82018 z"
     id="path867"
     inkscape:connector-curvature="0" />
  <path
     style="opacity:1;fill:#666666;fill-opacity:1;stroke:none;stroke-width:0.0625;stroke-miterlimit:4;stroke-dasharray:none;stroke-dashoffset:0;stroke-opacity:1"
     d="m 106.40267,110.68714 c 0.4938,-0.50143 0.90224,-1.09039 0.8334,-1.20177 -0.0217,-0.0351 -0.0119,-0.0639 0.0219,-0.0639 0.0793,0 0.21712,-0.41531 0.16554,-0.49878 -0.0217,-0.035 -0.006,-0.0637 0.0341,-0.0637 0.0447,0 0.0618,-0.0613 0.0436,-0.15625 -0.0164,-0.0859 -0.006,-0.15625 0.024,-0.15625 0.0296,0 0.0558,-0.10547 0.0582,-0.23437 0.0104,-0.55587 0.0633,-0.49934 0.99416,1.06257 0.49677,0.83355 0.94262,1.57883 0.99077,1.65618 l 0.0876,0.14062 h -1.8651 -1.8651 z"
     id="path869"
     inkscape:connector-curvature="0" />
</svg>
